<svg id="Capa_1" enable-background="new 0 0 510.002 510.002"
  height="512" viewBox="0 0 510.002 510.002" width="512" xmlns="http://www.w3.org/2000/svg"
  xmlns:xlink="http://www.w3.org/1999/xlink">
  <linearGradient id="lg1">
    <stop offset="0" stop-color="#fe646f" />
    <stop offset=".1209" stop-color="#fe556d" />
    <stop offset=".3524" stop-color="#fe2e69" />
    <stop offset=".5725" stop-color="#fe0364" />
    <stop offset="1" stop-color="#d2024e" />
  </linearGradient>
  <linearGradient id="SVGID_1_" gradientUnits="userSpaceOnUse" x1="0" x2="510" xlink:href="#lg1"
    y1="357.733" y2="357.733" />
  <linearGradient id="SVGID_2_" gradientUnits="userSpaceOnUse" x1="-58.394" x2="339.652"
    xlink:href="#lg1" y1="357.733" y2="357.733" />
  <linearGradient id="lg2">
    <stop offset="0" stop-color="#fe93bb" />
    <stop offset=".5595" stop-color="#925cb4" />
    <stop offset="1" stop-color="#5b3374" />
  </linearGradient>
  <linearGradient id="SVGID_3_" gradientUnits="userSpaceOnUse" x1="0" x2="510" xlink:href="#lg2"
    y1="255" y2="255" />
  <linearGradient id="SVGID_4_" gradientUnits="userSpaceOnUse" x1="-58.394" x2="339.652"
    xlink:href="#lg2" y1="255" y2="255" />
  <linearGradient id="lg3">
    <stop offset="0" stop-color="#99e6fc" />
    <stop offset=".4296" stop-color="#01d0fb" />
    <stop offset=".5256" stop-color="#08c6f7" />
    <stop offset=".692" stop-color="#1da9eb" />
    <stop offset=".9074" stop-color="#3f7cd9" />
    <stop offset="1" stop-color="#4f66d0" />
  </linearGradient>
  <linearGradient id="SVGID_5_" gradientUnits="userSpaceOnUse" x1="0" x2="510" xlink:href="#lg3"
    y1="152.268" y2="152.268" />
  <linearGradient id="SVGID_6_" gradientUnits="userSpaceOnUse" x1="-50.894" x2="455.505"
    xlink:href="#lg3" y1="152.268" y2="152.268" />
  <g>
    <path
      d="m193.041 222.552-175.924 105.027c-22.822 13.625-22.822 46.683 0 60.308l175.925 105.026c38.164 22.784 85.753 22.784 123.917 0l175.925-105.026c22.822-13.625 22.822-46.683 0-60.308l-175.925-105.027c-38.164-22.783-85.754-22.783-123.918 0z"
      fill="url(#SVGID_1_)" />
    <path
      d="m492.88 387.89-175.92 105.02c-25.11 14.99-54.28 20.12-82.18 15.39 14.51-2.46 28.68-7.59 41.75-15.39l175.92-105.02c.438-.261.867-.53 1.288-.806 24.96-16.336.754-54.149-24.859-38.858l-111.919 66.814c-38.17 22.79-85.75 22.79-123.92 0l-161.21-96.24 161.21-96.25c13.06-7.8 27.23-12.93 41.74-15.39 27.9-4.72 57.07.41 82.18 15.39l161.21 96.25 14.71 8.78c22.83 13.62 22.83 46.68 0 60.31z"
      fill="url(#SVGID_2_)" />
    <path
      d="m193.041 119.82-175.924 105.027c-22.822 13.625-22.822 46.683 0 60.308l175.924 105.025c38.164 22.784 85.753 22.784 123.917 0l175.925-105.026c22.822-13.625 22.822-46.683 0-60.308l-175.924-105.026c-38.164-22.783-85.754-22.783-123.918 0z"
      fill="url(#SVGID_3_)" />
    <path
      d="m492.88 285.158-175.92 105.02c-25.11 14.99-54.28 20.12-82.18 15.39 14.51-2.46 28.68-7.59 41.75-15.39l175.92-105.02c.438-.261.867-.53 1.288-.806 24.96-16.336.754-54.149-24.859-38.858l-111.919 66.814c-38.17 22.79-85.75 22.79-123.92 0l-161.21-96.24 161.21-96.25c13.06-7.8 27.23-12.93 41.74-15.39 27.9-4.72 57.07.41 82.18 15.39l161.21 96.25 14.71 8.78c22.83 13.62 22.83 46.68 0 60.31z"
      fill="url(#SVGID_4_)" />
    <path
      d="m193.041 17.088-175.924 105.026c-22.822 13.625-22.822 46.683 0 60.308l175.925 105.026c38.164 22.784 85.753 22.784 123.917 0l175.925-105.026c22.822-13.625 22.822-46.683 0-60.308l-175.925-105.026c-38.164-22.784-85.754-22.784-123.918 0z"
      fill="url(#SVGID_5_)" />
    <path
      d="m492.883 122.114-175.924-105.026c-25.102-14.986-54.282-20.112-82.175-15.384 14.514 2.46 28.681 7.586 41.743 15.384l175.925 105.026c22.823 13.625 22.823 46.683 0 60.308l-175.925 105.026c-13.062 7.798-27.228 12.924-41.743 15.384 27.893 4.728 57.073-.398 82.175-15.384l175.925-105.026c22.822-13.625 22.822-46.683-.001-60.308z"
      fill="url(#SVGID_6_)" />
  </g>
</svg>